<svg xmlns="http://www.w3.org/2000/svg" viewBox="0 0 1400 820" role="img" aria-label="Summit merch booth production render">
  <defs>
    <linearGradient id="bg" x1="0" y1="0" x2="1" y2="1">
      <stop offset="0%" stop-color="#10191d"/>
      <stop offset="100%" stop-color="#071013"/>
    </linearGradient>
    <linearGradient id="mint" x1="0" y1="0" x2="1" y2="1">
      <stop offset="0%" stop-color="#00ffa3"/>
      <stop offset="100%" stop-color="#12d6c0"/>
    </linearGradient>
    <linearGradient id="panel" x1="0" y1="0" x2="1" y2="1">
      <stop offset="0%" stop-color="#1c252a"/>
      <stop offset="100%" stop-color="#0c1215"/>
    </linearGradient>
    <filter id="shadow" x="-20%" y="-20%" width="140%" height="140%">
      <feDropShadow dx="0" dy="18" stdDeviation="18" flood-color="#000" flood-opacity=".34"/>
    </filter>
    <linearGradient id="floor" x1="0" y1="0" x2="1" y2="1">
      <stop offset="0%" stop-color="#0e1418"/>
      <stop offset="100%" stop-color="#0a1012"/>
    </linearGradient>
  </defs>
  <rect width="1400" height="820" rx="34" fill="url(#bg)"/>
  <text x="72" y="94" fill="#f4f7f5" font-family="Bahnschrift, Segoe UI, sans-serif" font-size="38" font-weight="700" letter-spacing=".08em">SUMMIT MERCH BOOTH</text>
  <text x="72" y="134" fill="#d6f2df" font-family="Bahnschrift, Segoe UI, sans-serif" font-size="20">Modular retail corner with premium signage, woven wall panels, and clear product zoning</text>
  <g filter="url(#shadow)" transform="translate(90,160)">
    <rect width="1220" height="580" rx="28" fill="rgba(255,255,255,.03)" stroke="#ffffff" stroke-opacity=".08"/>
    <rect x="0" y="390" width="1220" height="190" rx="0" fill="url(#floor)"/>
    <g transform="translate(86,58)">
      <rect x="0" y="0" width="320" height="250" rx="24" fill="url(#panel)"/>
      <rect x="24" y="24" width="272" height="58" rx="18" fill="url(#mint)"/>
      <text x="160" y="60" text-anchor="middle" fill="#081114" font-family="Bahnschrift, Segoe UI, sans-serif" font-size="20" font-weight="700">SOLANA SUMMIT</text>
      <text x="160" y="136" text-anchor="middle" fill="#f4f7f5" font-family="Bahnschrift, Segoe UI, sans-serif" font-size="18" letter-spacing=".18em">ATTENDEE</text>
      <text x="160" y="164" text-anchor="middle" fill="#00ffa3" font-family="Bahnschrift, Segoe UI, sans-serif" font-size="18" letter-spacing=".18em">TEAM</text>
      <text x="160" y="192" text-anchor="middle" fill="#f4f7f5" font-family="Bahnschrift, Segoe UI, sans-serif" font-size="18" letter-spacing=".18em">BEACH</text>
      <rect x="24" y="210" width="272" height="16" rx="8" fill="#c89b3c" opacity=".8"/>
    </g>
    <g transform="translate(456,46)">
      <rect x="0" y="0" width="612" height="302" rx="28" fill="url(#panel)"/>
      <rect x="36" y="36" width="540" height="110" rx="20" fill="#151d22"/>
      <text x="306" y="80" text-anchor="middle" fill="#f4f7f5" font-family="Bahnschrift, Segoe UI, sans-serif" font-size="28" font-weight="700">FROM EARN TO INTERNET CAPITAL MARKETS</text>
      <text x="306" y="118" text-anchor="middle" fill="#b5c1bc" font-family="Bahnschrift, Segoe UI, sans-serif" font-size="16">Merch store meets gallery wall</text>
      <g transform="translate(36,168)">
        <rect x="0" y="0" width="160" height="96" rx="18" fill="#f3eee4"/>
        <rect x="176" y="0" width="160" height="96" rx="18" fill="#1d2327"/>
        <rect x="352" y="0" width="160" height="96" rx="18" fill="url(#mint)"/>
        <text x="80" y="55" text-anchor="middle" fill="#081114" font-family="Bahnschrift, Segoe UI, sans-serif" font-size="16" font-weight="700">TEE</text>
        <text x="256" y="55" text-anchor="middle" fill="#00ffa3" font-family="Bahnschrift, Segoe UI, sans-serif" font-size="16" font-weight="700">JACKET</text>
        <text x="432" y="55" text-anchor="middle" fill="#081114" font-family="Bahnschrift, Segoe UI, sans-serif" font-size="16" font-weight="700">BOX SET</text>
      </g>
    </g>
    <g transform="translate(1084,72)">
      <rect x="0" y="0" width="92" height="516" rx="18" fill="#0f171b"/>
      <rect x="14" y="20" width="64" height="220" rx="12" fill="url(#mint)"/>
      <text x="46" y="108" text-anchor="middle" fill="#081114" font-family="Bahnschrift, Segoe UI, sans-serif" font-size="18" font-weight="700" transform="rotate(90 46 108)">SOLANA</text>
      <text x="46" y="160" text-anchor="middle" fill="#081114" font-family="Bahnschrift, Segoe UI, sans-serif" font-size="18" font-weight="700" transform="rotate(90 46 160)">SUMMIT</text>
      <rect x="14" y="266" width="64" height="214" rx="12" fill="#1d2327"/>
      <text x="46" y="368" text-anchor="middle" fill="#f4f7f5" font-family="Bahnschrift, Segoe UI, sans-serif" font-size="14" font-weight="700" transform="rotate(90 46 368)">NIGERIA 2026</text>
    </g>
    <g transform="translate(144,360)">
      <rect x="0" y="0" width="172" height="166" rx="20" fill="#151d22"/>
      <circle cx="86" cy="66" r="40" fill="#00ffa3" opacity=".16"/>
      <text x="86" y="72" text-anchor="middle" fill="#f4f7f5" font-family="Bahnschrift, Segoe UI, sans-serif" font-size="18" font-weight="700">COLLECTOR</text>
      <text x="86" y="98" text-anchor="middle" fill="#b5c1bc" font-family="Bahnschrift, Segoe UI, sans-serif" font-size="14">numbered runs</text>
    </g>
    <g transform="translate(360,380)">
      <rect x="0" y="0" width="482" height="146" rx="24" fill="#151d22"/>
      <text x="241" y="58" text-anchor="middle" fill="#f4f7f5" font-family="Bahnschrift, Segoe UI, sans-serif" font-size="22" font-weight="700">Premium, modular, collectible</text>
      <text x="241" y="94" text-anchor="middle" fill="#d6f2df" font-family="Bahnschrift, Segoe UI, sans-serif" font-size="14">Display the merch like a product drop.</text>
    </g>
  </g>
</svg>
