<svg xmlns="http://www.w3.org/2000/svg" viewBox="0 0 1400 820" role="img" aria-label="Merch displayed at the event production render">
  <defs>
    <linearGradient id="bg" x1="0" y1="0" x2="1" y2="1">
      <stop offset="0%" stop-color="#10191d"/>
      <stop offset="100%" stop-color="#071013"/>
    </linearGradient>
    <linearGradient id="table" x1="0" y1="0" x2="1" y2="1">
      <stop offset="0%" stop-color="#151d22"/>
      <stop offset="100%" stop-color="#0b1114"/>
    </linearGradient>
    <linearGradient id="mint" x1="0" y1="0" x2="1" y2="1">
      <stop offset="0%" stop-color="#00ffa3"/>
      <stop offset="100%" stop-color="#12d6c0"/>
    </linearGradient>
    <filter id="shadow" x="-20%" y="-20%" width="140%" height="140%">
      <feDropShadow dx="0" dy="18" stdDeviation="18" flood-color="#000" flood-opacity=".34"/>
    </filter>
    <pattern id="grid" width="24" height="24" patternUnits="userSpaceOnUse">
      <path d="M24 0 V24" stroke="#ffffff" stroke-opacity=".05" stroke-width="1"/>
      <path d="M0 24 H24" stroke="#ffffff" stroke-opacity=".05" stroke-width="1"/>
    </pattern>
  </defs>
  <rect width="1400" height="820" rx="34" fill="url(#bg)"/>
  <text x="72" y="94" fill="#f4f7f5" font-family="Bahnschrift, Segoe UI, sans-serif" font-size="38" font-weight="700" letter-spacing=".08em">EVENT MERCH DISPLAY</text>
  <text x="72" y="134" fill="#d6f2df" font-family="Bahnschrift, Segoe UI, sans-serif" font-size="20">Premium table system with folded apparel, collector cards, caps, signage, and product categories</text>
  <g filter="url(#shadow)" transform="translate(76,162)">
    <rect width="1248" height="580" rx="28" fill="rgba(255,255,255,.03)" stroke="#ffffff" stroke-opacity=".08"/>
    <rect x="62" y="76" width="1124" height="300" rx="26" fill="url(#grid)" opacity=".52"/>
    <g transform="translate(78,60)">
      <rect x="0" y="0" width="286" height="420" rx="22" fill="#0d1418" stroke="#ffffff" stroke-opacity=".06"/>
      <rect x="34" y="44" width="218" height="148" rx="20" fill="url(#mint)"/>
      <text x="143" y="100" text-anchor="middle" fill="#081114" font-family="Bahnschrift, Segoe UI, sans-serif" font-size="30" font-weight="800">SOLANA</text>
      <text x="143" y="138" text-anchor="middle" fill="#081114" font-family="Bahnschrift, Segoe UI, sans-serif" font-size="28" font-weight="800">SUMMIT</text>
      <rect x="34" y="226" width="218" height="34" rx="10" fill="#f3eee4"/>
      <text x="143" y="248" text-anchor="middle" fill="#081114" font-family="Bahnschrift, Segoe UI, sans-serif" font-size="12" letter-spacing=".18em">ATTENDEE DROP</text>
      <rect x="34" y="274" width="218" height="90" rx="16" fill="#141c20"/>
      <text x="54" y="308" fill="#d6f2df" font-family="Bahnschrift, Segoe UI, sans-serif" font-size="15">Folded attendee tee</text>
      <text x="54" y="334" fill="#d6f2df" font-family="Bahnschrift, Segoe UI, sans-serif" font-size="15">Patch cap + bucket hat</text>
      <text x="54" y="360" fill="#d6f2df" font-family="Bahnschrift, Segoe UI, sans-serif" font-size="15">Numbered collector card</text>
    </g>
    <g transform="translate(396,92)">
      <rect x="0" y="0" width="332" height="360" rx="22" fill="#0d1418" stroke="#ffffff" stroke-opacity=".06"/>
      <rect x="26" y="26" width="280" height="68" rx="18" fill="#151c20"/>
      <text x="166" y="58" text-anchor="middle" fill="#f4f7f5" font-family="Bahnschrift, Segoe UI, sans-serif" font-size="16" letter-spacing=".12em">COLLECTOR WALL</text>
      <rect x="26" y="118" width="126" height="180" rx="18" fill="#f3eee4"/>
      <rect x="180" y="118" width="126" height="180" rx="18" fill="#1d2327"/>
      <text x="89" y="208" text-anchor="middle" fill="#081114" font-family="Bahnschrift, Segoe UI, sans-serif" font-size="18" font-weight="700">LIMITED</text>
      <text x="89" y="232" text-anchor="middle" fill="#081114" font-family="Bahnschrift, Segoe UI, sans-serif" font-size="18" font-weight="700">EDITION</text>
      <text x="243" y="208" text-anchor="middle" fill="#00ffa3" font-family="Bahnschrift, Segoe UI, sans-serif" font-size="18" font-weight="700">TEAM</text>
      <text x="243" y="232" text-anchor="middle" fill="#f4f7f5" font-family="Bahnschrift, Segoe UI, sans-serif" font-size="18" font-weight="700">RUN</text>
      <rect x="26" y="316" width="280" height="18" rx="9" fill="#00ffa3" opacity=".72"/>
    </g>
    <g transform="translate(770,62)">
      <rect x="0" y="0" width="368" height="410" rx="24" fill="#0d1418" stroke="#ffffff" stroke-opacity=".06"/>
      <rect x="30" y="42" width="308" height="94" rx="18" fill="#151d22"/>
      <text x="184" y="82" text-anchor="middle" fill="#f4f7f5" font-family="Bahnschrift, Segoe UI, sans-serif" font-size="16" letter-spacing=".12em">SIGNAGE</text>
      <text x="184" y="108" text-anchor="middle" fill="#b5c1bc" font-family="Bahnschrift, Segoe UI, sans-serif" font-size="12">From Earn to Internet Capital Markets</text>
      <g transform="translate(28,172)">
        <rect x="0" y="0" width="132" height="112" rx="18" fill="#f3eee4"/>
        <rect x="150" y="0" width="132" height="112" rx="18" fill="#1d2327"/>
        <rect x="0" y="130" width="282" height="92" rx="18" fill="url(#mint)"/>
        <text x="66" y="62" text-anchor="middle" fill="#081114" font-family="Bahnschrift, Segoe UI, sans-serif" font-size="16" font-weight="700">TEE</text>
        <text x="216" y="62" text-anchor="middle" fill="#00ffa3" font-family="Bahnschrift, Segoe UI, sans-serif" font-size="16" font-weight="700">JACKET</text>
        <text x="141" y="187" text-anchor="middle" fill="#081114" font-family="Bahnschrift, Segoe UI, sans-serif" font-size="16" font-weight="700">BEACH DROP + COLLECTOR PACKS</text>
      </g>
    </g>
  </g>
</svg>
