<svg xmlns="http://www.w3.org/2000/svg" viewBox="0 0 1400 820" role="img" aria-label="Packaging system production render">
  <defs>
    <linearGradient id="bg" x1="0" y1="0" x2="1" y2="1">
      <stop offset="0%" stop-color="#10191d"/>
      <stop offset="100%" stop-color="#071013"/>
    </linearGradient>
    <linearGradient id="box" x1="0" y1="0" x2="1" y2="1">
      <stop offset="0%" stop-color="#e8dcc6"/>
      <stop offset="100%" stop-color="#cbb894"/>
    </linearGradient>
    <linearGradient id="mint" x1="0" y1="0" x2="1" y2="1">
      <stop offset="0%" stop-color="#00ffa3"/>
      <stop offset="100%" stop-color="#12d6c0"/>
    </linearGradient>
    <filter id="shadow" x="-20%" y="-20%" width="140%" height="140%">
      <feDropShadow dx="0" dy="18" stdDeviation="18" flood-color="#000" flood-opacity=".34"/>
    </filter>
    <pattern id="diags" width="42" height="42" patternUnits="userSpaceOnUse" patternTransform="rotate(28)">
      <rect width="42" height="42" fill="none"/>
      <rect x="0" y="0" width="14" height="42" fill="#00ffa3" opacity=".12"/>
      <rect x="14" y="0" width="14" height="42" fill="#c89b3c" opacity=".1"/>
      <rect x="28" y="0" width="14" height="42" fill="#081114" opacity=".06"/>
    </pattern>
  </defs>
  <rect width="1400" height="820" rx="34" fill="url(#bg)"/>
  <text x="72" y="94" fill="#f4f7f5" font-family="Bahnschrift, Segoe UI, sans-serif" font-size="38" font-weight="700" letter-spacing=".08em">COLLECTOR PACKAGING SYSTEM</text>
  <text x="72" y="134" fill="#d6f2df" font-family="Bahnschrift, Segoe UI, sans-serif" font-size="20">Recycled board box, tissue wrap, sticker seal, thank-you card, and numbered collector insert</text>
  <g filter="url(#shadow)" transform="translate(88,160)">
    <rect width="1224" height="580" rx="28" fill="rgba(255,255,255,.03)" stroke="#ffffff" stroke-opacity=".08"/>
    <g transform="translate(74,88)">
      <rect x="0" y="0" width="360" height="360" rx="28" fill="#151d22" stroke="#ffffff" stroke-opacity=".05"/>
      <rect x="34" y="34" width="292" height="292" rx="24" fill="url(#diags)"/>
      <rect x="58" y="58" width="244" height="244" rx="20" fill="url(#box)"/>
      <rect x="96" y="96" width="168" height="90" rx="18" fill="#0b1114"/>
      <text x="180" y="132" text-anchor="middle" fill="#f4f7f5" font-family="Bahnschrift, Segoe UI, sans-serif" font-size="22" font-weight="700">SOLANA</text>
      <text x="180" y="160" text-anchor="middle" fill="#00ffa3" font-family="Bahnschrift, Segoe UI, sans-serif" font-size="22" font-weight="700">SUMMIT</text>
      <text x="180" y="226" text-anchor="middle" fill="#081114" font-family="Bahnschrift, Segoe UI, sans-serif" font-size="13" letter-spacing=".2em">LIMITED COLLECTOR PACK</text>
    </g>
    <g transform="translate(496,72)">
      <rect x="0" y="0" width="260" height="400" rx="22" fill="#0d1418" stroke="#ffffff" stroke-opacity=".06"/>
      <path d="M40 52 H220 L210 250 H50 Z" fill="#f3eee4"/>
      <path d="M56 76 H204 L198 226 H62 Z" fill="#fffdf7"/>
      <rect x="76" y="124" width="108" height="70" rx="16" fill="#151d22"/>
      <text x="130" y="154" text-anchor="middle" fill="#f4f7f5" font-family="Bahnschrift, Segoe UI, sans-serif" font-size="14" letter-spacing=".12em">THANK YOU</text>
      <text x="130" y="176" text-anchor="middle" fill="#00ffa3" font-family="Bahnschrift, Segoe UI, sans-serif" font-size="14" font-weight="700">FOR BUILDING</text>
      <path d="M74 266 H186" stroke="#c89b3c" stroke-width="3"/>
      <text x="130" y="298" text-anchor="middle" fill="#d6f2df" font-family="Bahnschrift, Segoe UI, sans-serif" font-size="13">Tissue wrap + card</text>
      <text x="130" y="322" text-anchor="middle" fill="#d6f2df" font-family="Bahnschrift, Segoe UI, sans-serif" font-size="13">made for reuse</text>
    </g>
    <g transform="translate(804,72)">
      <rect x="0" y="0" width="340" height="400" rx="22" fill="#0d1418" stroke="#ffffff" stroke-opacity=".06"/>
      <rect x="34" y="34" width="272" height="188" rx="20" fill="#151d22"/>
      <circle cx="170" cy="128" r="58" fill="url(#mint)"/>
      <text x="170" y="120" text-anchor="middle" fill="#081114" font-family="Bahnschrift, Segoe UI, sans-serif" font-size="18" font-weight="700">NIGERIA</text>
      <text x="170" y="146" text-anchor="middle" fill="#081114" font-family="Bahnschrift, Segoe UI, sans-serif" font-size="13" letter-spacing=".2em">SUPERTEAM</text>
      <rect x="34" y="248" width="130" height="120" rx="16" fill="#f3eee4"/>
      <rect x="176" y="248" width="130" height="120" rx="16" fill="#1d2327"/>
      <text x="99" y="304" text-anchor="middle" fill="#081114" font-family="Bahnschrift, Segoe UI, sans-serif" font-size="18" font-weight="700">STICKERS</text>
      <text x="241" y="300" text-anchor="middle" fill="#00ffa3" font-family="Bahnschrift, Segoe UI, sans-serif" font-size="18" font-weight="700">COLLECTOR</text>
      <text x="241" y="324" text-anchor="middle" fill="#f4f7f5" font-family="Bahnschrift, Segoe UI, sans-serif" font-size="18" font-weight="700">CARD</text>
    </g>
  </g>
</svg>
