<svg xmlns="http://www.w3.org/2000/svg" viewBox="0 0 1400 820" role="img" aria-label="Team overshirt production render">
  <defs>
    <linearGradient id="bg" x1="0" y1="0" x2="1" y2="1">
      <stop offset="0%" stop-color="#101a1f"/>
      <stop offset="100%" stop-color="#071013"/>
    </linearGradient>
    <linearGradient id="shirt" x1="0" y1="0" x2="1" y2="1">
      <stop offset="0%" stop-color="#1d2327"/>
      <stop offset="100%" stop-color="#0b1114"/>
    </linearGradient>
    <linearGradient id="brass" x1="0" y1="0" x2="1" y2="1">
      <stop offset="0%" stop-color="#d8b460"/>
      <stop offset="100%" stop-color="#986d1e"/>
    </linearGradient>
    <filter id="shadow" x="-20%" y="-20%" width="140%" height="140%">
      <feDropShadow dx="0" dy="18" stdDeviation="20" flood-color="#000" flood-opacity=".35"/>
    </filter>
    <pattern id="wave" width="64" height="64" patternUnits="userSpaceOnUse">
      <path d="M0 24 C16 4, 48 4, 64 24" fill="none" stroke="#00ffa3" stroke-opacity=".15" stroke-width="4"/>
      <path d="M0 40 C16 20, 48 20, 64 40" fill="none" stroke="#c89b3c" stroke-opacity=".14" stroke-width="2"/>
      <path d="M8 56 H56" stroke="#f3eee4" stroke-opacity=".08" stroke-width="1.5"/>
    </pattern>
  </defs>
  <rect width="1400" height="820" rx="34" fill="url(#bg)"/>
  <text x="72" y="94" fill="#f4f7f5" font-family="Bahnschrift, Segoe UI, sans-serif" font-size="38" font-weight="700" letter-spacing=".08em">TEAM UTILITY OVERSHIRT</text>
  <text x="72" y="134" fill="#d6f2df" font-family="Bahnschrift, Segoe UI, sans-serif" font-size="20">Production uniform for staff, volunteers, speakers, sponsors, and event operations</text>
  <g filter="url(#shadow)" transform="translate(230,122)">
    <rect width="940" height="600" rx="28" fill="rgba(255,255,255,.03)" stroke="#ffffff" stroke-opacity=".08"/>
    <g transform="translate(96,46)">
      <path d="M154 18 L202 32 L238 74 L316 96 L360 44 L387 30 L432 48 L404 108 L380 118 L370 490 L118 490 L108 118 L84 108 L56 48 L101 30 L128 44 L172 96 L250 74 L286 32 Z" fill="url(#shirt)" stroke="#27353a" stroke-width="2"/>
      <path d="M123 104 C140 86, 158 76, 183 70 C211 64, 232 64, 260 70 C285 76, 303 86, 320 104 L320 488 L123 488 Z" fill="url(#wave)" opacity=".95"/>
      <path d="M164 78 H244 L259 132 H149 Z" fill="#f3eee4" opacity=".95"/>
      <path d="M149 132 L207 168 L265 132" fill="none" stroke="#0a1012" stroke-opacity=".45" stroke-width="3"/>
      <rect x="74" y="184" width="70" height="92" rx="12" fill="#10191d" stroke="#324146" stroke-width="2"/>
      <rect x="300" y="184" width="70" height="92" rx="12" fill="#10191d" stroke="#324146" stroke-width="2"/>
      <rect x="87" y="196" width="44" height="68" rx="8" fill="#0c1215"/>
      <rect x="313" y="196" width="44" height="68" rx="8" fill="#0c1215"/>
      <path d="M104 198 H118 M104 218 H118 M104 238 H118 M104 258 H118" stroke="#00ffa3" stroke-opacity=".48" stroke-width="2"/>
      <path d="M330 198 H344 M330 218 H344 M330 238 H344 M330 258 H344" stroke="#00ffa3" stroke-opacity=".48" stroke-width="2"/>
      <rect x="170" y="190" width="126" height="98" rx="12" fill="#0b1114" stroke="#ffffff" stroke-opacity=".06"/>
      <text x="233" y="216" text-anchor="middle" fill="#f4f7f5" font-family="Bahnschrift, Segoe UI, sans-serif" font-size="16" letter-spacing=".14em">SUPERTEAM</text>
      <text x="233" y="241" text-anchor="middle" fill="#00ffa3" font-family="Bahnschrift, Segoe UI, sans-serif" font-size="19" font-weight="700">NG</text>
      <text x="233" y="264" text-anchor="middle" fill="#b8c5c0" font-family="Bahnschrift, Segoe UI, sans-serif" font-size="11" letter-spacing=".22em">OPERATIONS</text>
      <rect x="170" y="314" width="126" height="92" rx="12" fill="#151c20" stroke="#c89b3c" stroke-opacity=".55" stroke-width="2"/>
      <path d="M182 328 H284 M182 352 H284 M182 376 H284" stroke="#00ffa3" stroke-width="2" stroke-opacity=".38"/>
      <text x="233" y="406" text-anchor="middle" fill="#f3eee4" font-family="Bahnschrift, Segoe UI, sans-serif" font-size="12" letter-spacing=".22em">UYO UNIT</text>
      <rect x="74" y="314" width="70" height="132" rx="14" fill="#141b1f" stroke="#324146" stroke-width="2"/>
      <rect x="300" y="314" width="70" height="132" rx="14" fill="#141b1f" stroke="#324146" stroke-width="2"/>
      <circle cx="112" cy="92" r="18" fill="url(#brass)"/>
      <circle cx="340" cy="92" r="18" fill="url(#brass)"/>
      <text x="488" y="122" fill="#f4f7f5" font-family="Bahnschrift, Segoe UI, sans-serif" font-size="30" font-weight="700">Operations uniform with collector polish</text>
      <text x="488" y="164" fill="#d6f2df" font-family="Bahnschrift, Segoe UI, sans-serif" font-size="18">Charcoal cotton twill, brass hardware, woven patch system, and high-contrast Solana mint hits.</text>
      <g transform="translate(480,210)">
        <rect width="310" height="118" rx="20" fill="#0f171b" stroke="#ffffff" stroke-opacity=".08"/>
        <text x="20" y="36" fill="#9cff57" font-family="Bahnschrift, Segoe UI, sans-serif" font-size="15" letter-spacing=".12em">PRODUCTION SPEC</text>
        <text x="20" y="64" fill="#d6f2df" font-family="Bahnschrift, Segoe UI, sans-serif" font-size="14">280gsm cotton twill overshirt</text>
        <text x="20" y="86" fill="#d6f2df" font-family="Bahnschrift, Segoe UI, sans-serif" font-size="14">Embroidered role patch + screen print</text>
        <text x="20" y="108" fill="#d6f2df" font-family="Bahnschrift, Segoe UI, sans-serif" font-size="14">Numbered team run: 001-150</text>
      </g>
    </g>
  </g>
</svg>
